<svg xmlns:dc="http://purl.org/dc/elements/1.1/" xmlns:cc="http://creativecommons.org/ns#" xmlns:rdf="http://www.w3.org/1999/02/22-rdf-syntax-ns#" xmlns:svg="http://www.w3.org/2000/svg" xmlns="http://www.w3.org/2000/svg" viewBox="0 0 400 400" fill="none"><metadata><rdf:RDF><cc:Work><dc:format>image/svg+xml</dc:format><dc:type rdf:resource="http://purl.org/dc/dcmitype/StillImage"/><dc:title>Adventurer Neutral</dc:title><dc:creator><cc:Agent><dc:title>Lisa Wischofsky</dc:title></cc:Agent></dc:creator><dc:source>https://www.instagram.com/lischi_art/</dc:source><cc:license rdf:resource="https://creativecommons.org/licenses/by/4.0/"/></cc:Work><cc:License rdf:about="https://creativecommons.org/licenses/by/4.0/"><cc:permits rdf:resource="https://creativecommons.org/ns#Reproduction"/><cc:permits rdf:resource="https://creativecommons.org/ns#Distribution"/><cc:permits rdf:resource="https://creativecommons.org/ns#DerivativeWorks"/><cc:requires rdf:resource="https://creativecommons.org/ns#Notice"/><cc:requires rdf:resource="https://creativecommons.org/ns#Attribution"/></cc:License></rdf:RDF></metadata><mask id="avatarsRadiusMask"><rect width="400" height="400" rx="0" ry="0" x="0" y="0" fill="#fff"/></mask><g mask="url(#avatarsRadiusMask)"><rect fill="rgba(242, 211, 177, 1)" width="400" height="400" x="0" y="0"/><g transform="translate(-279 -322)"><path d="M562.01 467.8c1.68-.01 3.23.31 4.88.58-.28 2.28.34 4.36-2.64 4.79-9.41.77-18.83 1.46-28.25 2.07-4.32.2-8.78 1.16-13.09.84-1.95-.79-2.63-2-2.04-4.1 1.45-1.38 3.19-1.54 5.09-1.69 12.03-.64 24.02-1.86 36.05-2.49ZM396.33 481.31c1.23 1.24 2.2 1.91 2.08 3.85-1.43 2.52-4.92 2.05-7.39 2.36-8.05.21-16.06 1.68-24.09 1.71-2.71-.36-2.11-2.53-2.53-4.58 10.33-2.64 21.37-1.79 31.93-3.34ZM618.89 483.07c1.04.75 2.08 1.48 3.13 2.22.8 13.5-2.65 27.36-9.93 38.78-5.97 9.49-14.43 17.43-24.32 22.73-14.52 7.96-32.32 9.86-48.26 5.44-13.99-3.8-26.82-12.65-35.32-24.41-7.23-9.91-11.69-21.68-12.38-33.96 2.1-3.32 5.74-3.01 9.17-3.26 30.68-2.09 61.35-4.13 92.02-6.22 8.69-.2 17.2-1.64 25.89-1.32Z" fill="#000"/><path d="M616.28 488.65c.74 20.78-11.03 41.27-28.85 51.8-11.82 6.93-25.88 9.98-39.46 7.75-13.48-1.97-26.14-8.82-35.27-18.9-8.02-8.88-13.6-20.53-14.76-32.49 11.17-1.24 22.38-1.68 33.58-2.64.38 8.47 1.87 17.19 5.19 25.03 1.9 4.28 5.3 10.07 10.24 11.13 4.79.85 7.97-2.58 9.97-6.45 4.58-9.28 4-21.49 3.22-31.56 18.7-1.25 37.42-2.66 56.14-3.67Z" fill="#fff"/><path d="M415.01 499.71c8.09-.69 16.13-1.44 24.27-1.05.87.83 1.75 1.67 2.64 2.49.19 15.99-6.7 31.57-18.78 42.06-11.41 10.04-27.07 15.01-42.17 13.21-11.39-1.12-22.22-6.03-30.73-13.65-10.08-8.95-16.44-21.51-17.98-34.89 1.04-.88 2.19-2.68 3.63-2.82 13.04-1.6 26.05-1.69 39.11-2.95 13.35-.64 26.66-1.71 40.01-2.4Z" fill="#000"/><path d="M436.36 504.29c-.69 5.07-1.44 9.93-3.28 14.74-4.03 10.88-12.06 20.17-22.2 25.81-7.22 4.08-15.61 6.16-23.88 6.33-13.14-.11-26.09-5.46-35.25-14.93-7-7.05-11.53-16.13-13.37-25.88 11.33-.98 22.74-1.64 34.1-2.24-.06 7.18.95 14.37 4.79 20.58 1.69 2.61 4.35 5.19 7.69 4.99 3.57-.13 6.11-3.28 7.5-6.27 2.85-6.64 2.88-13.67 2.25-20.74 13.86-.8 27.77-2.18 41.65-2.39Z" fill="#fff"/></g><g transform="translate(-279 -322)"><g fill="#000"><path d="M397.06 373.14c6.81.19 14.18 2.86 17.93 8.88 1.05 1.45.63 3.68.72 5.4-6.29.15-12.49.33-18.64 1.83-15.06 3.48-29.35 10.86-41.64 20.15-8.37 6.38-16.34 14.1-21.95 23.07-1.43 2.22-2.41 5.03-4.29 6.89-1.24.26-2.57.28-3.83.35-.05-1.77-.23-3.46.21-5.19 5.72-20.86 19.83-39.34 38.12-50.81 9.83-5.84 21.73-11.05 33.37-10.57ZM578.52 411.66c10.41 1.67 21.2 3.85 30.01 9.97l-.21 4.78c-4.07 1.59-7.29-.15-11.31-.78-6.82-1.2-13.91-1.25-20.83-1.11-29.25 1.32-58.23 9.89-83.97 23.74-1.45.63-2.92 1.06-4.42 1.54-2.58-5.36-3.61-10.91-.13-16.17 5.13-7.67 15.2-12.39 23.63-15.44 21.34-7.36 44.88-9 67.23-6.53Z"/></g></g><g transform="translate(-279 -322)"><path d="M521.18 567.25c1.55-.38 3.33-1 4.93-.74 2 .78 2.03 3.01 1.04 4.64-4.12 2.62-10 2.81-14.26 4.89 3.42 13.46 3.76 27.49.01 40.93-3.27 12.19-10.22 24.02-20.72 31.3-7.05 4.98-15.6 7.41-24.21 6.54-11.52-1.1-21.7-8.19-28.53-17.28-9.5-12.6-13.35-27.92-13.48-43.53.34-5.62.98-11.21 2.11-16.73-2.4-.78-5.59-1.13-7.5-2.84-.56-1.23-.2-2.85-.25-4.18 4.52-.02 8.3 1.66 12.66 2.56 29.55 5.95 59.49 3.04 88.2-5.56Z" fill="#000"/><path d="M506.94 577.11c5.23 17.71 3.27 38.43-6.69 54.17-4.13 6.48-9.68 11.96-16.73 15.17-7.99 3.73-17.56 3.43-25.4-.56-8.06-4.01-14.57-11.41-18.7-19.31-7.58-14.67-9.44-32.01-5.52-48.03 10.46 2.49 21.07 3.05 31.77 3.27-1 6.74-.96 13.39-1.18 20.18.01 1.91-.16 4.09.49 5.92 1.1 1.71 4.66 1.2 4.76-1.06.58-8.41-.13-16.75 1.51-25.13 11.98-.25 23.98-2.21 35.69-4.62Z" fill="#EA869E"/></g><g transform="translate(-279 -322)"/></g></svg>