<svg xmlns:dc="http://purl.org/dc/elements/1.1/" xmlns:cc="http://creativecommons.org/ns#" xmlns:rdf="http://www.w3.org/1999/02/22-rdf-syntax-ns#" xmlns:svg="http://www.w3.org/2000/svg" xmlns="http://www.w3.org/2000/svg" viewBox="0 0 400 400" fill="none"><metadata><rdf:RDF><cc:Work><dc:format>image/svg+xml</dc:format><dc:type rdf:resource="http://purl.org/dc/dcmitype/StillImage"/><dc:title>Adventurer Neutral</dc:title><dc:creator><cc:Agent><dc:title>Lisa Wischofsky</dc:title></cc:Agent></dc:creator><dc:source>https://www.instagram.com/lischi_art/</dc:source><cc:license rdf:resource="https://creativecommons.org/licenses/by/4.0/"/></cc:Work><cc:License rdf:about="https://creativecommons.org/licenses/by/4.0/"><cc:permits rdf:resource="https://creativecommons.org/ns#Reproduction"/><cc:permits rdf:resource="https://creativecommons.org/ns#Distribution"/><cc:permits rdf:resource="https://creativecommons.org/ns#DerivativeWorks"/><cc:requires rdf:resource="https://creativecommons.org/ns#Notice"/><cc:requires rdf:resource="https://creativecommons.org/ns#Attribution"/></cc:License></rdf:RDF></metadata><mask id="avatarsRadiusMask"><rect width="400" height="400" rx="0" ry="0" x="0" y="0" fill="#fff"/></mask><g mask="url(#avatarsRadiusMask)"><rect fill="rgba(236, 173, 128, 1)" width="400" height="400" x="0" y="0"/><g transform="translate(-279 -322)"><path d="M555 424.09c15.07-.45 30.21 4.46 42.06 13.81 18.47 14.28 28.15 38.55 24.23 61.62-.99 7.61-3.96 14.36-6.83 21.38-1.43.59-2.9 1.25-4.4 1.62-3.14-.02-6.34-1.41-9.37-2.2-15.51-4.54-31.55-6.76-47.69-6.93-13.3.45-27.29 2.4-39.34 8.31-2.83 1.28-5.61 2.99-8.59 3.86-3.52-.25-4.36-3.15-5.94-5.74-7.02-13.13-9.05-28.5-6.31-43.08 2.57-13.26 9.31-25.52 19.15-34.79 11.6-11.03 27.01-17.44 43.03-17.86Z" fill="#000"/><path d="M557.001 429.85c13.47-.19 26.63 4.66 37.13 13.01 9.59 7.63 16.7 18.34 20 30.15 4.23 14.46 2.5 30.12-4.26 43.54-6.14-.92-11.86-3.14-17.94-4.39-16.73-3.67-34.37-5.5-51.43-3.48-12.36 1.34-23.99 5.14-34.84 11.18-6.86-11.98-10.07-26.23-7.61-39.92 2-12.66 8.2-24.57 17.42-33.47 10.95-10.62 26.24-16.88 41.53-16.62Z" fill="#fff"/><path d="M381.25 447.09c12.75-1.3 25.87 1.93 36.48 9.14 12.3 8.24 20.94 21.6 23.4 36.21 1.25 8.35.98 17.27-1.59 25.36-3.82 12.78-12.47 23.95-23.86 30.89-10.28 6.31-22.73 9.17-34.72 7.73-15.89-1.56-30.69-10.55-39.57-23.79-5.78-8.44-8.88-18.4-9.5-28.58-.36-12.78 3.55-25.59 11.4-35.73 9.08-11.92 23.05-19.71 37.96-21.23Z" fill="#000"/><path d="M376.499 453.66c11.24-2.5 23.12-.85 33.29 4.51 17.34 8.91 28.1 28.42 26.3 47.83-1.13 11.3-5.9 22.08-13.91 30.17-8.21 8.51-19.42 13.72-31.18 14.77-19.4 1.77-38.75-8.99-47.69-26.26-8.31-15.63-7.35-35.21 2.46-49.94 7-10.71 18.22-18.41 30.73-21.08Z" fill="#fff"/><path d="M519.431 474.74c8.56-2.21 17.77 3.55 19.3 12.29 1.86 8.33-3.88 16.92-12.2 18.57-9.21 2.17-18.82-5.06-18.99-14.59-.68-7.52 4.66-14.48 11.89-16.27ZM403.43 485.61c9.52-3.24 20.05 4.41 20.34 14.34.81 8.84-6.85 17.06-15.74 16.75-8.62.39-16.04-7.14-15.96-15.68-.25-6.97 4.7-13.5 11.36-15.41ZM598.819 532.68c1.05.34 2.11.69 3.16 1.06-.43 1.65-.27 3.31-1.72 4.43-6.89 5.73-16.13 10.13-25.25 9.91-3.84-.08-8.61-1-11.46-3.78-.26-1.17-.33-2.4-.44-3.59.93-.31 1.87-.63 2.81-.94 4.52 2.16 9.07 3.47 14.1 2.21 7.46-1.28 12.59-5.51 18.8-9.3ZM347.061 547.76c2.26-.49 3.85 1.46 5.53 2.62 9.4 7.75 21.34 11.38 33.42 11.45 5.83.1 10.84-2.25 16.7-1.34-.51 2.38-.06 4.38-2.93 5.06-18.1 4.87-38.96.17-52.89-12.49-1.77-1.38-2.24-4.33.17-5.3Z" fill="#000"/></g><g transform="translate(-279 -322)"><g fill="#000"><path d="M397.06 373.14c6.81.19 14.18 2.86 17.93 8.88 1.05 1.45.63 3.68.72 5.4-6.29.15-12.49.33-18.64 1.83-15.06 3.48-29.35 10.86-41.64 20.15-8.37 6.38-16.34 14.1-21.95 23.07-1.43 2.22-2.41 5.03-4.29 6.89-1.24.26-2.57.28-3.83.35-.05-1.77-.23-3.46.21-5.19 5.72-20.86 19.83-39.34 38.12-50.81 9.83-5.84 21.73-11.05 33.37-10.57ZM578.52 411.66c10.41 1.67 21.2 3.85 30.01 9.97l-.21 4.78c-4.07 1.59-7.29-.15-11.31-.78-6.82-1.2-13.91-1.25-20.83-1.11-29.25 1.32-58.23 9.89-83.97 23.74-1.45.63-2.92 1.06-4.42 1.54-2.58-5.36-3.61-10.91-.13-16.17 5.13-7.67 15.2-12.39 23.63-15.44 21.34-7.36 44.88-9 67.23-6.53Z"/></g></g><g transform="translate(-279 -322)"><path d="M473.001 557.77c14.54-.55 30.84 1.36 43.71 8.62-20.68 8.69-43.21 14.72-65.7 15.48-7.24 0-14.34.28-21.54-.61.7-5.83 3.09-9.58 7.73-13.05 9.92-7.31 23.76-9.76 35.8-10.44Z" fill="#D31E1E"/><path d="M525.03 563.67c.41.78.8 1.57 1.14 2.37.47 2.66-1.95 3.31-3.81 4.34-3.98 1.77-8.05 3.4-12.12 4.98-17.66 6.32-35.39 11.11-54.24 11.94-6.5.5-12.94.62-19.44.04-4.9-.57-10.15-.63-14.87-2.03-2.35-.88-2.73-3.93-.4-5.07 2.68-.12 5.48.83 8.18 1.02 7.2.89 14.3.61 21.54.61 22.49-.76 45.02-6.79 65.7-15.48 2.76-1.19 5.22-2.59 8.32-2.72Z" fill="#000"/><path d="M510.241 575.36c-1.96 10.16-10.37 17.27-19.22 21.68-10.52 5.13-22.48 6.64-34 4.71-8.71-1.77-16.51-6.13-20.46-14.41 6.5.58 12.94.46 19.44-.04 18.85-.83 36.58-5.62 54.24-11.94Z" fill="#D31E1E"/></g><g transform="translate(-279 -322)"><path fill-rule="evenodd" clip-rule="evenodd" d="M531.31 506.71c7.34 4.5 12.1 12.74 12.79 21.28.97 9.95-4.19 20.21-12.55 25.62-6.49 4.08-14.6 5.58-22.07 3.66-11.77-2.85-20.88-13.75-20.98-25.94-8.63-10.18-25.54-13.93-36.48-5.26-3.23 2.99-6.61 7.32-6.74 11.91-1.66 12.18-12 22.15-24.27 23.27-12.14 1.5-24.49-6.08-28.61-17.62-4.63-11.86-.12-25.8 10.5-32.77 7.52-4.92 17.38-5.88 25.69-2.42 7.77 3.11 13.23 9.62 16.01 17.4 5.32-6.87 13.8-10.32 22.4-10.1 8.25-.07 15.45 3.28 21.98 8.05 1.86-6.67 5.57-12.57 11.32-16.53 9.06-6.39 21.73-6.65 31.01-.55Zm-22.64 2.4c6.34-2.22 13.56-1.59 19.29 1.93 7.13 4.28 11.43 12.68 10.61 20.98-.62 9.97-8.38 18.29-18.07 20.26-11.33 2.28-23.02-5.13-25.9-16.28-3.05-11.13 3.23-23.06 14.07-26.89Zm-70.58 15.77c-3.84-8.69-13.49-14.16-22.91-12.75-7.54 1.13-14.05 5.85-17.14 12.87-3.66 8.33-1.84 17.98 4.56 24.43 6.05 6.06 15.65 8.07 23.59 4.82 6.8-2.63 12.26-9.01 13.4-16.26.51-4.56.7-8.92-1.5-13.11Z" fill="#000"/></g></g></svg>