<svg xmlns:dc="http://purl.org/dc/elements/1.1/" xmlns:cc="http://creativecommons.org/ns#" xmlns:rdf="http://www.w3.org/1999/02/22-rdf-syntax-ns#" xmlns:svg="http://www.w3.org/2000/svg" xmlns="http://www.w3.org/2000/svg" viewBox="0 0 400 400" fill="none"><metadata><rdf:RDF><cc:Work><dc:format>image/svg+xml</dc:format><dc:type rdf:resource="http://purl.org/dc/dcmitype/StillImage"/><dc:title>Adventurer Neutral</dc:title><dc:creator><cc:Agent><dc:title>Lisa Wischofsky</dc:title></cc:Agent></dc:creator><dc:source>https://www.instagram.com/lischi_art/</dc:source><cc:license rdf:resource="https://creativecommons.org/licenses/by/4.0/"/></cc:Work><cc:License rdf:about="https://creativecommons.org/licenses/by/4.0/"><cc:permits rdf:resource="https://creativecommons.org/ns#Reproduction"/><cc:permits rdf:resource="https://creativecommons.org/ns#Distribution"/><cc:permits rdf:resource="https://creativecommons.org/ns#DerivativeWorks"/><cc:requires rdf:resource="https://creativecommons.org/ns#Notice"/><cc:requires rdf:resource="https://creativecommons.org/ns#Attribution"/></cc:License></rdf:RDF></metadata><mask id="avatarsRadiusMask"><rect width="400" height="400" rx="0" ry="0" x="0" y="0" fill="#fff"/></mask><g mask="url(#avatarsRadiusMask)"><rect fill="rgba(118, 57, 0, 1)" width="400" height="400" x="0" y="0"/><g transform="translate(-279 -322)"><path d="M617.23 468.82c1.16 1.34 2.37 2.36 2.84 4.14 4.46 17.23 1.58 36.09-7.98 51.11-8.01 12.77-20.52 22.56-34.83 27.28-11.68 3.74-24.33 4.31-36.24 1.27-17.06-4.16-32.11-15.59-40.77-30.86-7.18-12.23-9.85-26.73-8.06-40.75.53-3.41 1.75-7.26 5.57-8.09 8.61-1.53 17.56-1.34 26.27-2.27 24.31-1.49 48.65-2.37 73.01-2.08 6.75-.37 13.45.4 20.19.25Z" fill="#000"/><path d="M607.09 474.28c2.48.12 4.97.24 7.45.37 3.8 14.15 1.78 29.85-5.17 42.73-6.79 12.81-18.41 23-32.1 27.84-14.68 5.57-31.38 4.73-45.56-1.92-13.38-6.21-24.24-17.42-29.82-31.09-4.19-10.23-5.98-22.11-3.62-32.99 1.86-.72 3.69-1.32 5.7-1.4 16.9-1.37 33.84-2.38 50.78-3.11-.41 5.34-.18 10.53 2.09 15.47 3.42 7.65 10.45 13.28 18.62 15.04 4.89.87 9.94.6 14.61-1.13 8.19-2.81 14.36-9.94 16.48-18.26.92-3.9.66-7.59.54-11.55Z" fill="#fff"/><path d="M432.03 480.67c2.01-.23 3.79.3 5.74.68 4.2 9.05 4.82 19.93 3.38 29.69-2.48 14.77-11.15 28.19-23.63 36.48-10.93 7.31-24.46 10.57-37.51 8.79-15.32-1.77-29.51-10.46-38.25-23.14-6.82-9.71-10.02-21.43-10.01-33.24 6.53-3.27 13.18-3.72 20.49-5.47 20.5-4.17 41.07-8.1 61.75-11.22 6-.99 11.97-2.04 18.04-2.57Z" fill="#000"/><path d="M433.71 486.06c1.44 5.27 2.74 10.43 2.6 15.94-.2 9.49-3.01 19.08-8.31 26.99-9.89 15.07-28.07 23.78-46.01 21.88-12.38-1.34-24.01-7.28-32.17-16.71-7.5-8.47-11.57-19.33-12.24-30.58 14.45-3.54 29.14-6.22 43.76-9.01 1.32 6.49 4.55 12.28 10.11 16.03 9.04 6.32 21.92 5.38 29.9-2.26 6.12-5.72 8.04-13.57 7.2-21.73 1.72-.19 3.44-.38 5.16-.55Z" fill="#fff"/></g><g transform="translate(-279 -322)"><g fill="#000"><path d="M452.03 395.85c.66 4.64-1.51 9.35-4.21 13-3.6 4.46-7.81 8.36-12.85 11.13-7.66 4.35-15.96 7.71-24.19 10.81-23.79 8.79-48.56 15.1-73.52 19.48-3.35.54-6.97 1.5-10.36 1.11-1.92-.92-2-2.82-1.11-4.52 2.34-1.8 5.49-2.72 8.19-3.89 35.94-14.72 71.88-29.45 107.8-44.2 3.36-1.25 6.59-3.38 10.25-2.92ZM478.97 396c49.32 7.61 98.68 15.15 148.01 22.75 2.58.42 5.33.58 7.81 1.41 2.44 1.14 1.7 5.04-.96 5.26-9.59.95-19.18 1.82-28.83 1.95-15.39.1-30.64.32-45.98-1.18-20.91-1.64-42.24-4.59-62.25-11.06-6.97-2.41-14.88-5.46-20.27-10.64-1.79-1.9-4.09-4.28-3.17-7.13 1.22-2.13 3.6-1.59 5.64-1.36Z"/></g></g><g transform="translate(-279 -322)"><path d="M517 555.43c13.39-.24 28.69 3.46 38.6 12.98 5.97 5.58 9.72 13.37 9.9 21.58.32 10.21-3.84 19.58-9.89 27.58-9.04 11.85-21.87 20.72-35.47 26.57-7.32 2.84-14.41 5.71-22.15 7.24-16.76 3.21-34.33 1.42-50.03-5.31-13.98-6.01-27.24-14.24-38.31-24.71-5.42-5.3-10.58-11.69-13.28-18.84-2.03-5.48-2.34-11.97 1.22-16.91 3.7-5.37 9.99-7.74 16.18-8.84 12.6-1.77 24.45.42 36.57 3.76 7.36-6.86 15.88-12.06 25.02-16.21 12.99-5.74 27.38-9.28 41.64-8.89Z" fill="#000"/><path d="M542.47 566.35c-3.47 2.67-7.33 4.74-10.83 7.34-4.3 4.07-7.59 10.96-12.77 14.1-5.16.84-10.5-3.32-15.18-1.11-9.25 3.5-18.79 6.01-28.49 7.9-14.14 2.57-29.48 3.77-43.64.89-4.29-1.11-7.12 1.32-11.46 1.88-4.37-4.22-7.53-9.21-12.73-12.59 12.76-5.32 28.76-1.99 41.63 1.51 3.92 1.25 6.04-2.46 8.8-4.48 13.48-10.73 30.18-17.54 47.23-19.85 12.66-1.87 25.64-.74 37.44 4.41Z" fill="#fff"/><path d="M547.96 569.91c7.13 4.29 11.65 12.83 11.82 21.09-.18 7.44-2.97 13.99-6.8 20.24-6.37-2.56-13.17-3.29-19.99-2.88-14.36.89-28.54 4.42-41.91 9.67-9.04 3.64-18.05 8.23-25.74 14.27-3.77 2.98-6.45 6.16-8.76 10.38-7.74-2.15-14.6-5.75-21.53-9.73-9.94-5.85-19.02-12.62-26.5-21.47-3.77-4.64-7.55-10.34-7.78-16.49-.14-2.33.91-4.43 1.72-6.55 5.41 3.65 9.36 8.64 14.22 12.85 4 3.41 9.21-.65 13.75.08 5.81.96 11.66 1.41 17.53 1.74 20.42-.25 40.58-4.31 59.65-11.55 4.16.86 9.89 2.73 13.97 1.05 4.92-2.84 8.62-8.58 12.18-12.91 1.47-1.75 3.81-2.92 5.71-4.17 2.91-1.75 5.48-4.02 8.46-5.62Z" fill="#8F2E45"/><path d="M536 614.18c4.54-.11 8.95.63 13.3 1.9-9.23 11.12-22.42 19.3-35.85 24.38-16.26 6.04-34.23 8.32-51.21 3.94 1.95-2.75 4.09-5.3 6.76-7.39 8.9-7.26 20.21-12.2 30.99-15.97 11.5-3.83 23.86-6.67 36.01-6.86Z" fill="#EA869E"/></g><g transform="translate(-279 -322)"/></g></svg>