<svg xmlns:dc="http://purl.org/dc/elements/1.1/" xmlns:cc="http://creativecommons.org/ns#" xmlns:rdf="http://www.w3.org/1999/02/22-rdf-syntax-ns#" xmlns:svg="http://www.w3.org/2000/svg" xmlns="http://www.w3.org/2000/svg" viewBox="0 0 400 400" fill="none"><metadata><rdf:RDF><cc:Work><dc:format>image/svg+xml</dc:format><dc:type rdf:resource="http://purl.org/dc/dcmitype/StillImage"/><dc:title>Adventurer Neutral</dc:title><dc:creator><cc:Agent><dc:title>Lisa Wischofsky</dc:title></cc:Agent></dc:creator><dc:source>https://www.instagram.com/lischi_art/</dc:source><cc:license rdf:resource="https://creativecommons.org/licenses/by/4.0/"/></cc:Work><cc:License rdf:about="https://creativecommons.org/licenses/by/4.0/"><cc:permits rdf:resource="https://creativecommons.org/ns#Reproduction"/><cc:permits rdf:resource="https://creativecommons.org/ns#Distribution"/><cc:permits rdf:resource="https://creativecommons.org/ns#DerivativeWorks"/><cc:requires rdf:resource="https://creativecommons.org/ns#Notice"/><cc:requires rdf:resource="https://creativecommons.org/ns#Attribution"/></cc:License></rdf:RDF></metadata><mask id="avatarsRadiusMask"><rect width="400" height="400" rx="0" ry="0" x="0" y="0" fill="#fff"/></mask><g mask="url(#avatarsRadiusMask)"><rect fill="rgba(242, 211, 177, 1)" width="400" height="400" x="0" y="0"/><g transform="translate(-279 -322)"><path d="M556 424.07c14.74-.22 29.47 4.69 41.05 13.82 18.48 14.28 28.19 38.59 24.23 61.66-.97 7.55-3.91 14.28-6.79 21.23-1.41.65-2.88 1.52-4.42 1.77-2.33.07-4.8-.91-7.04-1.55-15.9-4.89-32.42-7.29-49.03-7.62-15.06.4-29.61 2.56-43.09 9.64-3.06 1.28-5.83 4.03-8.97 1.26-8.58-12.42-11.56-28.46-9.81-43.32 1.88-14.82 8.94-28.76 19.83-39 11.84-11.27 27.69-17.72 44.04-17.89Z" fill="#000"/><path d="M557 429.85c13.7-.2 27.09 4.84 37.68 13.45 9.3 7.59 16.22 18.13 19.44 29.7 4.21 14.33 2.58 30.26-4.3 43.51-5.35-.61-10.17-2.65-15.46-3.78-16.05-3.75-32.92-5.8-49.39-4.47-14.09.98-26.96 4.71-39.29 11.59-7.06-12.12-10.21-26.98-7.46-40.82 2.58-15.15 11.3-29.08 23.8-38.03 10.11-7.24 22.5-11.37 34.98-11.15Z" fill="#fff"/><path d="M381.31 447.08c12.98-1.32 26.32 2.09 37.02 9.56 12.03 8.29 20.42 21.5 22.82 35.91 1.2 8.25.97 17.09-1.57 25.09-4.48 15.26-15.89 28.16-30.47 34.49-12.99 5.78-28.14 6.16-41.44 1.18-11.33-4.19-21.14-12.24-27.48-22.52-5.05-8.05-7.68-17.27-8.31-26.71-.33-12.56 3.39-25.14 10.99-35.21 9.07-12.24 23.28-20.27 38.44-21.79Z" fill="#000"/><path d="M376.49 453.67c18.14-4.16 37.8 3.04 49.17 17.7 8.71 11.04 12.73 26.33 9.55 40.13-1.95 9.98-7.12 19.22-14.55 26.16-8.03 7.65-18.6 12.27-29.63 13.27-19.64 1.82-39.23-9.24-48.03-26.86-7.99-15.54-6.9-34.79 2.78-49.34 7-10.7 18.2-18.4 30.71-21.06Z" fill="#fff"/><path d="M519.39 474.75c8.57-2.25 17.85 3.55 19.35 12.31 1.85 8.26-3.88 16.87-12.14 18.52-9.15 2.29-18.91-5.05-19.05-14.53-.72-7.51 4.64-14.5 11.84-16.3ZM403.4 485.62c6.37-2.18 13.28.49 17.27 5.71 4.54 5.93 4.18 14.9-1.03 20.31-5.02 5.79-14.49 6.76-20.65 2.39-4.26-2.85-6.94-7.87-6.92-13-.26-6.95 4.69-13.5 11.33-15.41Z" fill="#000"/></g><g transform="translate(-279 -322)"><g fill="#000"><path d="M452.03 395.85c.66 4.64-1.51 9.35-4.21 13-3.6 4.46-7.81 8.36-12.85 11.13-7.66 4.35-15.96 7.71-24.19 10.81-23.79 8.79-48.56 15.1-73.52 19.48-3.35.54-6.97 1.5-10.36 1.11-1.92-.92-2-2.82-1.11-4.52 2.34-1.8 5.49-2.72 8.19-3.89 35.94-14.72 71.88-29.45 107.8-44.2 3.36-1.25 6.59-3.38 10.25-2.92ZM478.97 396c49.32 7.61 98.68 15.15 148.01 22.75 2.58.42 5.33.58 7.81 1.41 2.44 1.14 1.7 5.04-.96 5.26-9.59.95-19.18 1.82-28.83 1.95-15.39.1-30.64.32-45.98-1.18-20.91-1.64-42.24-4.59-62.25-11.06-6.97-2.41-14.88-5.46-20.27-10.64-1.79-1.9-4.09-4.28-3.17-7.13 1.22-2.13 3.6-1.59 5.64-1.36Z"/></g></g><g transform="translate(-279 -322)"><path d="M517 555.43c13.39-.24 28.69 3.46 38.6 12.98 5.97 5.58 9.72 13.37 9.9 21.58.32 10.21-3.84 19.58-9.89 27.58-9.04 11.85-21.87 20.72-35.47 26.57-7.32 2.84-14.41 5.71-22.15 7.24-16.76 3.21-34.33 1.42-50.03-5.31-13.98-6.01-27.24-14.24-38.31-24.71-5.42-5.3-10.58-11.69-13.28-18.84-2.03-5.48-2.34-11.97 1.22-16.91 3.7-5.37 9.99-7.74 16.18-8.84 12.6-1.77 24.45.42 36.57 3.76 7.36-6.86 15.88-12.06 25.02-16.21 12.99-5.74 27.38-9.28 41.64-8.89Z" fill="#000"/><path d="M542.47 566.35c-3.47 2.67-7.33 4.74-10.83 7.34-4.3 4.07-7.59 10.96-12.77 14.1-5.16.84-10.5-3.32-15.18-1.11-9.25 3.5-18.79 6.01-28.49 7.9-14.14 2.57-29.48 3.77-43.64.89-4.29-1.11-7.12 1.32-11.46 1.88-4.37-4.22-7.53-9.21-12.73-12.59 12.76-5.32 28.76-1.99 41.63 1.51 3.92 1.25 6.04-2.46 8.8-4.48 13.48-10.73 30.18-17.54 47.23-19.85 12.66-1.87 25.64-.74 37.44 4.41Z" fill="#fff"/><path d="M547.96 569.91c7.13 4.29 11.65 12.83 11.82 21.09-.18 7.44-2.97 13.99-6.8 20.24-6.37-2.56-13.17-3.29-19.99-2.88-14.36.89-28.54 4.42-41.91 9.67-9.04 3.64-18.05 8.23-25.74 14.27-3.77 2.98-6.45 6.16-8.76 10.38-7.74-2.15-14.6-5.75-21.53-9.73-9.94-5.85-19.02-12.62-26.5-21.47-3.77-4.64-7.55-10.34-7.78-16.49-.14-2.33.91-4.43 1.72-6.55 5.41 3.65 9.36 8.64 14.22 12.85 4 3.41 9.21-.65 13.75.08 5.81.96 11.66 1.41 17.53 1.74 20.42-.25 40.58-4.31 59.65-11.55 4.16.86 9.89 2.73 13.97 1.05 4.92-2.84 8.62-8.58 12.18-12.91 1.47-1.75 3.81-2.92 5.71-4.17 2.91-1.75 5.48-4.02 8.46-5.62Z" fill="#8F2E45"/><path d="M536 614.18c4.54-.11 8.95.63 13.3 1.9-9.23 11.12-22.42 19.3-35.85 24.38-16.26 6.04-34.23 8.32-51.21 3.94 1.95-2.75 4.09-5.3 6.76-7.39 8.9-7.26 20.21-12.2 30.99-15.97 11.5-3.83 23.86-6.67 36.01-6.86Z" fill="#EA869E"/></g><g transform="translate(-279 -322)"/></g></svg>