<svg xmlns:dc="http://purl.org/dc/elements/1.1/" xmlns:cc="http://creativecommons.org/ns#" xmlns:rdf="http://www.w3.org/1999/02/22-rdf-syntax-ns#" xmlns:svg="http://www.w3.org/2000/svg" xmlns="http://www.w3.org/2000/svg" viewBox="0 0 400 400" fill="none"><metadata><rdf:RDF><cc:Work><dc:format>image/svg+xml</dc:format><dc:type rdf:resource="http://purl.org/dc/dcmitype/StillImage"/><dc:title>Adventurer Neutral</dc:title><dc:creator><cc:Agent><dc:title>Lisa Wischofsky</dc:title></cc:Agent></dc:creator><dc:source>https://www.instagram.com/lischi_art/</dc:source><cc:license rdf:resource="https://creativecommons.org/licenses/by/4.0/"/></cc:Work><cc:License rdf:about="https://creativecommons.org/licenses/by/4.0/"><cc:permits rdf:resource="https://creativecommons.org/ns#Reproduction"/><cc:permits rdf:resource="https://creativecommons.org/ns#Distribution"/><cc:permits rdf:resource="https://creativecommons.org/ns#DerivativeWorks"/><cc:requires rdf:resource="https://creativecommons.org/ns#Notice"/><cc:requires rdf:resource="https://creativecommons.org/ns#Attribution"/></cc:License></rdf:RDF></metadata><mask id="avatarsRadiusMask"><rect width="400" height="400" rx="0" ry="0" x="0" y="0" fill="#fff"/></mask><g mask="url(#avatarsRadiusMask)"><rect fill="rgba(242, 211, 177, 1)" width="400" height="400" x="0" y="0"/><g transform="translate(-279 -322)"><path d="M617.23 468.82c1.16 1.34 2.37 2.36 2.84 4.14 4.46 17.23 1.58 36.09-7.98 51.11-8.01 12.77-20.52 22.56-34.83 27.28-11.68 3.74-24.33 4.31-36.24 1.27-17.06-4.16-32.11-15.59-40.77-30.86-7.18-12.23-9.85-26.73-8.06-40.75.53-3.41 1.75-7.26 5.57-8.09 8.61-1.53 17.56-1.34 26.27-2.27 24.31-1.49 48.65-2.37 73.01-2.08 6.75-.37 13.45.4 20.19.25Z" fill="#000"/><path d="M607.09 474.28c2.48.12 4.97.24 7.45.37 3.8 14.15 1.78 29.85-5.17 42.73-6.79 12.81-18.41 23-32.1 27.84-14.68 5.57-31.38 4.73-45.56-1.92-13.38-6.21-24.24-17.42-29.82-31.09-4.19-10.23-5.98-22.11-3.62-32.99 1.86-.72 3.69-1.32 5.7-1.4 16.9-1.37 33.84-2.38 50.78-3.11-.41 5.34-.18 10.53 2.09 15.47 3.42 7.65 10.45 13.28 18.62 15.04 4.89.87 9.94.6 14.61-1.13 8.19-2.81 14.36-9.94 16.48-18.26.92-3.9.66-7.59.54-11.55Z" fill="#fff"/><path d="M432.03 480.67c2.01-.23 3.79.3 5.74.68 4.2 9.05 4.82 19.93 3.38 29.69-2.48 14.77-11.15 28.19-23.63 36.48-10.93 7.31-24.46 10.57-37.51 8.79-15.32-1.77-29.51-10.46-38.25-23.14-6.82-9.71-10.02-21.43-10.01-33.24 6.53-3.27 13.18-3.72 20.49-5.47 20.5-4.17 41.07-8.1 61.75-11.22 6-.99 11.97-2.04 18.04-2.57Z" fill="#000"/><path d="M433.71 486.06c1.44 5.27 2.74 10.43 2.6 15.94-.2 9.49-3.01 19.08-8.31 26.99-9.89 15.07-28.07 23.78-46.01 21.88-12.38-1.34-24.01-7.28-32.17-16.71-7.5-8.47-11.57-19.33-12.24-30.58 14.45-3.54 29.14-6.22 43.76-9.01 1.32 6.49 4.55 12.28 10.11 16.03 9.04 6.32 21.92 5.38 29.9-2.26 6.12-5.72 8.04-13.57 7.2-21.73 1.72-.19 3.44-.38 5.16-.55Z" fill="#fff"/></g><g transform="translate(-279 -322)"><g fill="#000"><path d="M545.03 378.5c24.7.94 48.04 8.97 69.45 20.99 2.26 1.32 4.92 2.49 6.79 4.33 1.3 2.39-.38 5.13-3.2 4.19-16.58-6.21-33.56-9.63-51.06-12.02-20.3-2.34-39.92-3.68-60.2-.13-3.2.44-6.87 2.16-10.08 1.59-2.66-1.69-1.2-6.1 1.29-7.37 13.63-9.33 30.79-12.1 47.01-11.58ZM407.99 396.92c3.51.64 6.6 1.92 9.63 3.78-.15 1.2-.26 2.4-.33 3.62-2.7.74-5.46 1.12-8.24 1.34-13.17 1.15-26.45 5.11-38.81 9.69-12.23 4.75-24.78 10.64-35.19 18.71-2.82 2.03-4.13 4.82-8.08 4.47-.5-.9-1-1.79-1.51-2.67.89-1.59 1.68-3.17 2.76-4.64 9.55-13.17 23.64-23.22 38.61-29.35 12.7-5.15 27.61-8.05 41.16-4.95Z"/></g></g><g transform="translate(-279 -322)"><path d="M524.16 555.86c.61 6.97-.81 13.29-1.53 20.14-2.76 24.18-9.37 47.95-19.15 70.23-3.65 7.33-6.72 15.74-13.94 20.34-3.86 2.79-9.11 1.94-13.2.16-4.48-2.23-8.94-4.98-12.41-8.63a171.314 171.314 0 0 1-29.94-42.13c-6.76-12.54-11.65-25.76-17.12-38.87-.92-2.1-1.13-4.11 1.07-5.43 4.38-.1 8.65 1.41 13.06 1.45 9.89.33 19.99.52 29.81-.88 17.69-2.04 35.09-7.15 51.54-13.9 4.22-1.53 7.13-4.31 11.81-2.48Z" fill="#000"/><path d="M518.92 562c-2.1 16.35-4.16 32.05-8.89 47.96-9.07-.71-18.45 2.59-26.46 6.61-10.54 5.48-21.2 13.48-27.26 23.89-7.57-9.81-13.74-20.42-19.35-31.44-5.4-10.14-9.36-20.75-13.97-31.24 9.45.8 18.49 2.05 27.99 1.01 23.21-.73 46.69-7.69 67.94-16.79Z" fill="#8F2E45"/><path d="M508.19 616.1c-3.83 13.3-8.82 26.41-15.55 38.52-1.62 2.89-3.68 5.84-6.7 7.39-4.1 1.71-9.13-1.19-12.46-3.5-5.34-3.38-8.58-8.29-12.86-12.75 1.94-5.34 6.21-9.98 10.4-13.7 7.82-6.68 17.09-12.04 26.99-14.9 3.34-1.04 6.72-1.16 10.18-1.06Z" fill="#EA869E"/></g><g transform="translate(-279 -322)"/></g></svg>