<svg xmlns="http://www.w3.org/2000/svg" viewBox="0 0 400 400" fill="none" shape-rendering="auto"><desc>"Adventurer Neutral" by "Lisa Wischofsky", licensed under "CC BY 4.0". / Remix of the original. - Created with dicebear.com</desc><metadata xmlns:dc="http://purl.org/dc/elements/1.1/" xmlns:cc="http://creativecommons.org/ns#" xmlns:rdf="http://www.w3.org/1999/02/22-rdf-syntax-ns#"><rdf:RDF><cc:Work><dc:title>Adventurer Neutral</dc:title><dc:creator><cc:Agent rdf:about="https://www.instagram.com/lischi_art/"><dc:title>Lisa Wischofsky</dc:title></cc:Agent></dc:creator><dc:source>https://www.figma.com/community/file/1184595184137881796</dc:source><cc:license rdf:resource="https://creativecommons.org/licenses/by/4.0/" /></cc:Work></rdf:RDF></metadata><mask id="viewboxMask"><rect width="400" height="400" rx="0" ry="0" x="0" y="0" fill="#fff" /></mask><g mask="url(#viewboxMask)"><rect fill="#f2d3b1" width="400" height="400" x="0" y="0" /><g transform="translate(-279 -322)"><path d="M587.37 431.61a65.1 65.1 0 0 1 27.94 28.7c5.58-3.44 11.26-6.7 16.83-10.18 1.56-.93 3.14-1.94 4.89-2.46 1.93.56 2.77 1.31 2.72 3.44-.47 1.3-1.75 2-2.83 2.76-6.46 3.95-13.07 7.67-19.41 11.81 6.07 14.16 5.97 31.18.8 45.61a65.5 65.5 0 0 1-29.9 35.15 65.13 65.13 0 0 1-43.58 7 65.15 65.15 0 0 1-43.5-29.87 63.26 63.26 0 0 1-9.64-33.57 64.44 64.44 0 0 1 16.82-44.5c9.47-10.43 22.53-17.96 36.46-20.3a65.09 65.09 0 0 1 42.4 6.41Z" fill="#000"/><path d="M549.2 430.27c14.66-1.79 29.3 1.6 41.46 10.02a59.1 59.1 0 0 1 23.46 32.72 59.16 59.16 0 0 1-3.06 40.93c-6.2 13.86-18.05 25.26-32.25 30.69a57.97 57.97 0 0 1-31.8 3.4 59.6 59.6 0 0 1-40.36-26.66 61.47 61.47 0 0 1-9.37-29.35 60.43 60.43 0 0 1 13.41-40.34 59.53 59.53 0 0 1 38.51-21.41Z" fill="#fff"/><path d="M414.7 454.33a54.92 54.92 0 0 1 24.53 30.46c2.68 8.02 3.17 16.86 2.07 25.2a54.85 54.85 0 0 1-61.29 46.3c-15.79-1.8-30.36-10.98-39.03-24.27-5.54-8.33-8.47-18.05-9.1-28-.32-7.07 1.17-13.62 2.92-20.39a238.5 238.5 0 0 1-12.8-8.6c-1.7-1.23-1.84-2.14-1.54-4.17 1.3-1.26 2.74-1.6 4.35-.65 4.2 2.57 8.15 5.53 12.25 8.24 6.7-14.02 19.04-24.86 33.97-29.29a55.12 55.12 0 0 1 43.66 5.17Z" fill="#000"/><path d="M378.2 453.3c18.68-3.52 38.38 4.7 49.14 20.33 7.5 10.77 10.85 24.96 7.88 37.84a48.94 48.94 0 0 1-14.57 26.2A49.55 49.55 0 0 1 391 550.94c-20.13 1.85-40.14-9.82-48.62-28.14a49.3 49.3 0 0 1 35.82-69.5Z" fill="#fff"/><path d="M526.47 467.49c12-2.85 24.87 4.22 29.35 15.63a26.1 26.1 0 0 1-.08 18.72 25.64 25.64 0 0 1-41.14 9.56 25.7 25.7 0 0 1-6.76-27.6 25.54 25.54 0 0 1 18.63-16.31ZM398.22 478.36a23.17 23.17 0 0 1 24.44 11c3.46 5.59 3.67 12.26 2.25 18.53a23.78 23.78 0 0 1-15.87 15.27c-7.51 2.4-16.26.06-21.98-5.24-7.35-6.8-9.5-18-5.05-27a23 23 0 0 1 16.21-12.56Z" fill="#000"/></g><g transform="translate(-279 -322)"><path d="M414.18 389.84c-5.5-7.26-14.52-9.33-23.2-8.38-13.12 1.9-24.56 8.53-34.46 17.08-10.76 9.47-19.88 21.7-24.72 35.27-.66 1.92-1.27 4.69 1.03 5.74 2.1.24 2.83.08 4.11-1.6 11.58-14.9 26.26-27.61 43.54-35.44 8.2-3.6 17.55-6.09 26.55-5.69 1.03.04 2.1.21 3.15.39 1.67.27 3.35.55 4.96.3 2.9-2.23.74-5.27-.86-7.53l-.1-.14ZM592.9 408.15c-18.2-10.23-38.04-17.1-58.92-18.97-10.05-.75-21.44-.2-30.72 4.09-6.76 3.16-12.37 8.56-13.57 16.22l-.12.95c-.38 2.89-.88 6.8 1.32 8.78 1.99.78 3.6-.34 5.23-1.46.74-.51 1.49-1.03 2.27-1.36 13.86-6.86 30.29-9.28 45.61-9.7 15.48.06 31.36 2.13 46.03 7.2l.48.13c1.46.4 2.74.74 3.89-.62 1.8-1.88.48-4.24-1.5-5.25Z" fill="#000"/></g><g transform="translate(-279 -322)"><path d="M535.03 562.93c9.64 1.78 18.64 8.36 22.66 17.4 3.3 7.29 4.24 15.74 3.54 23.67-1.11 11.35-7.23 22.08-15 30.25-8.7 9.5-20.77 15.9-33.23 18.82-20.17 4.42-41.87 5.15-62.03.33-14.26-3.37-27.76-9.79-38.58-19.78-4.47-4.23-8.92-9.14-10.93-15.05-2.64-7.62-2.32-16.43 1.48-23.6a20.2 20.2 0 0 1 17.04-10.63c12.69-.78 23.87 4.19 36 4.7 7.82.14 15.89-1.05 23.18-3.9 11.37-4.8 21.29-14.52 32.86-19.16 7.35-3.04 15.07-4.58 23-3.05Z" fill="#000"/><path d="M538.01 569.9c6.94 2.53 12.73 7.89 15.12 14.96-2.94 2.53-5.85 5.05-9 7.3-3.6 2.63-7.19 4.4-9.93 8.04-3.23 3.94-5.95 9.87-10.37 12.5-3.4-.37-6.67-2.86-9.83-4.05-2.45-.6-5.4.47-7.8 1.06-12.17 3.53-24.57 5.15-37.2 5.87-3.23.07-6.43.2-9.59.95 0 1.24.06 2.45.3 3.68 1.86 1.5 5 1.35 7.3 1.46a191.17 191.17 0 0 0 45-7.29c3.68.11 9.34 5.23 13.89 3.53 5.34-2.5 8.93-9.06 12.36-13.63 1.89-2.72 4.5-4.05 7.17-5.86 3.36-2.22 6.46-4.74 9.56-7.28.65 5.61 1.08 11.34-.35 16.88-2.28 9.36-8.17 17.98-15.08 24.57-9.95 9.67-23.55 14.65-37.07 16.63-11.94 1.57-24.5 2.43-36.48.84-17.37-1.79-35.16-8.03-48.4-19.68-5.06-4.63-9.76-8.85-11.18-15.89-2.35-8.7.37-20.82 10.11-23.62 8.19-1.88 17.76.53 25.88 2.22 12.05 2.8 25.09 2.4 36.82-1.64 13.96-4.91 24.9-17.13 38.79-21.37 6.31-2.14 13.7-2.61 19.98-.17Z" fill="#fff"/></g><g transform="translate(-279 -322)"></g></g></svg>