<svg xmlns:dc="http://purl.org/dc/elements/1.1/" xmlns:cc="http://creativecommons.org/ns#" xmlns:rdf="http://www.w3.org/1999/02/22-rdf-syntax-ns#" xmlns:svg="http://www.w3.org/2000/svg" xmlns="http://www.w3.org/2000/svg" viewBox="0 0 400 400" fill="none"><metadata><rdf:RDF><cc:Work><dc:format>image/svg+xml</dc:format><dc:type rdf:resource="http://purl.org/dc/dcmitype/StillImage"/><dc:title>Adventurer Neutral</dc:title><dc:creator><cc:Agent><dc:title>Lisa Wischofsky</dc:title></cc:Agent></dc:creator><dc:source>https://www.instagram.com/lischi_art/</dc:source><cc:license rdf:resource="https://creativecommons.org/licenses/by/4.0/"/></cc:Work><cc:License rdf:about="https://creativecommons.org/licenses/by/4.0/"><cc:permits rdf:resource="https://creativecommons.org/ns#Reproduction"/><cc:permits rdf:resource="https://creativecommons.org/ns#Distribution"/><cc:permits rdf:resource="https://creativecommons.org/ns#DerivativeWorks"/><cc:requires rdf:resource="https://creativecommons.org/ns#Notice"/><cc:requires rdf:resource="https://creativecommons.org/ns#Attribution"/></cc:License></rdf:RDF></metadata><mask id="avatarsRadiusMask"><rect width="400" height="400" rx="0" ry="0" x="0" y="0" fill="#fff"/></mask><g mask="url(#avatarsRadiusMask)"><rect fill="rgba(158, 86, 34, 1)" width="400" height="400" x="0" y="0"/><g transform="translate(-279 -322)"><g fill="#000"><path d="M619.37 468.64c3.87 2.59 8.11 5.27 11.16 8.82.29 1.66.07 3.43.04 5.12-1.93.6-3.41 1.04-5.39.26-29.11-10.45-62.11-9.7-91.33-.07-12.55 4.26-25.01 10.37-35.3 18.8-1.32 1.05-3.89 2.91-5.29 1.13-1.71-1.56-.64-3.53.19-5.23 7.13-12.76 17.99-23.13 30.66-30.34 29.02-16.58 66.88-16.42 95.26 1.51ZM405.49 480.39c11.64 2.56 23.55 8.63 31.21 17.94 2.79 3.9 6.46 8.06 5.87 13.18-1.58-.03-3.27.69-4.53-.5-4.31-3.48-8.75-6.1-13.92-8.1-15.2-5.93-32.51-7.16-48.6-5.04-12.43 1.78-26.06 5.7-35.99 13.69-1.91 1.29-3.18 2.8-5.68 1.81-1.2-1.87-1.02-4.43.33-6.17 16.01-21.77 45.05-31.82 71.31-26.81Z"/></g></g><g transform="translate(-279 -322)"><g fill="#000"><path d="M606.99 397.59c1.52-.4 3.26.6 4.74.97-.11 1.2-.17 2.45-.47 3.61-1.58 1.49-3.57 2.61-5.39 3.78-22.77 14.6-46.18 28.4-70.32 40.63-11.53 5.73-23.34 11.3-35.55 15.44-6.86 2.19-13.72 4.28-21.01 3.44-3.31-.31-6.16-3.02-6.23-6.43-.04-4.22 3-8.6 5.08-12.15 1.28-2.68 4.5-3.04 6.99-4.12 37.24-13.75 74.44-27.65 111.67-41.45 3.48-1.23 6.91-2.81 10.49-3.72ZM338.99 432.64c29.88 5.94 60.13 12.03 90.02 18.02 2.27.32 4.6.07 6.85.45 2.45 2.3 3.64 6.21 4.54 9.37 1.17 4.09-.15 8.77-3.91 11.01-4 2.62-9.91 2.16-14.5 1.89-8.74-1-17.41-3.8-25.68-6.74-19.61-7.16-38.69-16.93-56.97-26.97-1.67-.96-3.68-1.94-4.79-3.55-.38-2.88 1.85-4.16 4.44-3.48Z"/></g></g><g transform="translate(-279 -322)"><path d="M495.22 560.98c15.47 1.86 31.27 5.52 44.44 14.2 7.06 4.63 13.5 11.35 15.37 19.82 2.36 8.6-3.62 18.23-11.69 21.37-7.22 3.03-14.02 1.8-21.35.17-5.96-.95-11.95-1.6-17.99-1.84-22.56-.95-45.14.85-67.19 5.75-5.75 1.01-11.12 3.3-16.8 3.71-6.48.14-13.08-3.06-16.8-8.41-3.08-4.19-4.42-9.63-4.29-14.77.61-7.76 5.39-14.89 11.17-19.87 9.78-8.61 22.92-13.67 35.41-16.81 16.28-3.82 33.07-4.79 49.72-3.32Z" fill="#000"/><path d="M505.97 568.6c-10.26 7.49-23.29 11.5-35.8 12.93-14.13 1.18-28.18.17-41.49-5.01 8.86-4.74 19.44-6.95 29.27-8.73 16.06-2.16 32.07-2.4 48.02.81Z" fill="#fff"/><path d="M513.77 570.3c11.07 3.23 22.56 7.72 30.43 16.52 4.18 4.76 6.93 11.23 4 17.39-3.01 6.16-9.66 8.56-16.2 7.98-22.43-4.47-46.27-4.38-68.96-2.05-12.25 1.6-24.14 3.39-36.04 6.83-5.67 1.38-11.31 2.18-16.17-1.8-6.59-5.25-7.41-14.6-3.49-21.74 3.42-5.84 8.89-10.26 14.64-13.66 4.08 2.55 8.45 3.69 13.04 4.97 21.88 5.68 46.86 3.96 67.01-6.71 4.26-2.11 7.8-5.14 11.74-7.73Z" fill="#8F2E45"/></g><g transform="translate(-279 -322)"/></g></svg>